# xmcd
#
# Track frame offsets:
#  150
#  15521
#  29941
#  46660
#  64694
#  80437
#  95905
#  111815
#  127079
#  137257
#  152596
#  166414
#  186085
#  198869
#  216375
#  235618
#  250139
#  272611
#
# Disc length: 3826 seconds
#
# Revision: 0
# Processed by: cddbd v1.5.1PL2 Copyright (c) Steve Scherf et al.
# Submitted via: Collectorz.com_Music_Collector 6.10
#
DISCID=f40ef012
DTITLE=VARIOUS AUSTRALIAN ARTISTS - Toyota Muster Rural Aid Appeal Volumes 29,30,31,32 [CD1)
DYEAR=2005
DGENRE=AUSSIE ALTERNATIVE - AUSSIE BLUEGRASS - AUSSIE BLUES - AUSSIE BLUES ROCK - AUSSIE COUNTRY - AUSSIE FOLK-ROCK - AUSSIE INDEPENDENT ROCK - AUSSIE_Country Blues - AUSSIE_General Country - Country
TTITLE0=Adam Harvey - The Biggest Fool
TTITLE1=Kevin Montgomery - Tennessee Girl
TTITLE2=Tracey Coster - Wont't Those Memories Let Me Be
TTITLE3=Bill Bridge - One More Chance Once More
TTITLE4=Peter Pratt - Where I'm LOnging To Go
TTITLE5=Adam Kilpatrick - My LOve Is Real
TTITLE6=Alby Pool - You Can't Take Away These Memories
TTITLE7=Atherton Brothers - The Country Music Muster
TTITLE8=Barbara Thompson - Back In Baby's Arms
TTITLE9=Pixie Jenkins - Winter Winds
TTITLE10=Jeff Gibson - My Old Cooloola Home
TTITLE11=Texas Rose - You Mess Around With My Heart
TTITLE12=The Blowfly'z Band - Country Drag
TTITLE13=The Rain - Heart To Heart
TTITLE14=Jeanette Wormald - If This Isn't Country
TTITLE15=Clelia Adams - heartbeat Highway
TTITLE16=Uncle Bob's Jug Band - Vodeo Vo
TTITLE17=Naked Poets - The Parachute Club
EXTD=
EXTT0=
EXTT1=
EXTT2=
EXTT3=
EXTT4=
EXTT5=
EXTT6=
EXTT7=
EXTT8=
EXTT9=
EXTT10=
EXTT11=
EXTT12=
EXTT13=
EXTT14=
EXTT15=
EXTT16=
EXTT17=
PLAYORDER=
